<?xml version="1.0" encoding="utf-8"?>
<!-- Generator: Adobe Illustrator 16.0.4, SVG Export Plug-In . SVG Version: 6.00 Build 0)  -->
<!DOCTYPE svg PUBLIC "-//W3C//DTD SVG 1.1//EN" "http://www.w3.org/Graphics/SVG/1.1/DTD/svg11.dtd">
<svg version="1.1"
	 id="svg2" xmlns:dc="http://purl.org/dc/elements/1.1/" xmlns:cc="http://creativecommons.org/ns#" xmlns:rdf="http://www.w3.org/1999/02/22-rdf-syntax-ns#" xmlns:svg="http://www.w3.org/2000/svg" xmlns:sodipodi="http://sodipodi.sourceforge.net/DTD/sodipodi-0.dtd" xmlns:inkscape="http://www.inkscape.org/namespaces/inkscape" inkscape:version="0.47 r22583" sodipodi:docname="departures.svg"
	 xmlns="http://www.w3.org/2000/svg" xmlns:xlink="http://www.w3.org/1999/xlink" x="0px" y="0px" width="292.904px"
	 height="292.904px" viewBox="0 0 292.904 292.904" enable-background="new 0 0 292.904 292.904" xml:space="preserve">
<defs>
	
	
		<inkscape:perspective  sodipodi:type="inkscape:persp3d" inkscape:vp_x="0 : 526.18109 : 1" inkscape:vp_y="0 : 1000 : 0" inkscape:vp_z="744.09448 : 526.18109 : 1" id="perspective10" inkscape:persp3d-origin="372.04724 : 350.78739 : 1">
		</inkscape:perspective>
	
		<inkscape:perspective  sodipodi:type="inkscape:persp3d" inkscape:vp_x="0 : 0.5 : 1" inkscape:vp_y="0 : 1000 : 0" inkscape:vp_z="1 : 0.5 : 1" id="perspective2824" inkscape:persp3d-origin="0.5 : 0.33333333 : 1">
		</inkscape:perspective>
	
		<inkscape:perspective  sodipodi:type="inkscape:persp3d" inkscape:vp_x="0 : 0.5 : 1" inkscape:vp_y="0 : 1000 : 0" inkscape:vp_z="1 : 0.5 : 1" id="perspective3616" inkscape:persp3d-origin="0.5 : 0.33333333 : 1">
		</inkscape:perspective>
</defs>
<sodipodi:namedview  pagecolor="#ffffff" bordercolor="#666666" borderopacity="1.0" inkscape:zoom="1.979899" inkscape:cx="134.54425" inkscape:cy="126.78539" showgrid="false" id="base" inkscape:pageopacity="0.0" inkscape:pageshadow="2" inkscape:document-units="px" inkscape:current-layer="layer1" inkscape:window-width="1280" inkscape:window-height="1002" inkscape:window-x="1912" inkscape:window-y="-8" inkscape:window-maximized="1">
	</sodipodi:namedview>
<g id="layer1" transform="translate(-162.7589,-181.52698)" inkscape:label="Ebene 1" inkscape:groupmode="layer">
	<g id="g3589">
		
			<path id="rect3646" inkscape:export-ydpi="600" inkscape:export-xdpi="600" inkscape:export-filename="D:\Users\jonas\Pictures\departure.png" fill="none" stroke="#535353" stroke-width="15" d="
			M190.228,189.027h237.965c11.028,0,19.97,8.94,19.97,19.971v237.965c0,11.028-8.94,19.97-19.97,19.97H190.228
			c-11.029,0-19.971-8.94-19.971-19.97V208.996C170.259,197.967,179.199,189.027,190.228,189.027z"/>
	</g>
</g>
<path id="path2115" fill="#535353" d="M146.666,35.439c-20.598,0-49.044,5.885-60.816,10.79C74.08,51.133,66.232,56.038,63.78,68.3
	l-8.828,67.975v93.663h15.204v14.688c0,17.91,26.208,17.91,26.208,0v-14.688h48.384h0.154h50.302v14.688
	c0,17.91,26.208,17.91,26.208,0v-14.688h15.204v-93.663L227.79,68.3c-2.453-12.262-10.299-17.167-22.07-22.071
	c-11.771-4.905-40.219-10.79-60.817-10.79"/>
<g id="g2117">
	<g id="g2119">
		<g id="g2121">
			<path id="path2123" fill="#FFFFFF" d="M208.299,200.577c6.942,0,12.572-5.63,12.572-12.573c0-6.942-5.63-12.572-12.572-12.572
				c-6.943,0-12.571,5.63-12.571,12.572C195.727,194.947,201.355,200.577,208.299,200.577z"/>
			<path id="path2125" fill="#FFFFFF" d="M54.952,35.439"/>
		</g>
		<g id="g2127">
			<path id="path2129" fill="#FFFFFF" d="M83.27,200.577c-6.943,0-12.571-5.63-12.571-12.573c0-6.942,5.628-12.572,12.571-12.572
				s12.571,5.63,12.571,12.572C95.842,194.947,90.214,200.577,83.27,200.577z"/>
			<path id="path2131" fill="#FFFFFF" d="M54.952,35.439"/>
		</g>
	</g>
	<path id="path2133" fill="#FFFFFF" d="M144.812,63.64h-36.4c-7.356,0-7.356-11.035,0-11.035h36.491h38.254
		c7.356,0,7.356,11.035,0,11.035H144.812z"/>
	<path id="path2135" fill="#FFFFFF" d="M144.812,74.782H88.579c-7.772,0-9.802,3.95-10.747,9.939l-6.871,49.302
		c-0.64,4.725,0.727,9.415,7.255,9.415h66.687h68.451c6.527,0,7.895-4.69,7.255-9.415l-6.872-49.302
		c-0.943-5.989-2.974-9.939-10.746-9.939H144.812z"/>
</g>
</svg>
