<?xml version="1.0" encoding="utf-8"?>
<!-- Generator: Adobe Illustrator 16.0.4, SVG Export Plug-In . SVG Version: 6.00 Build 0)  -->
<!DOCTYPE svg PUBLIC "-//W3C//DTD SVG 1.1//EN" "http://www.w3.org/Graphics/SVG/1.1/DTD/svg11.dtd">
<svg version="1.1"
	 id="svg2" xmlns:dc="http://purl.org/dc/elements/1.1/" xmlns:cc="http://creativecommons.org/ns#" xmlns:rdf="http://www.w3.org/1999/02/22-rdf-syntax-ns#" xmlns:svg="http://www.w3.org/2000/svg" xmlns:sodipodi="http://sodipodi.sourceforge.net/DTD/sodipodi-0.dtd" xmlns:inkscape="http://www.inkscape.org/namespaces/inkscape" inkscape:version="0.47 r22583" sodipodi:docname="departures.svg"
	 xmlns="http://www.w3.org/2000/svg" xmlns:xlink="http://www.w3.org/1999/xlink" x="0px" y="0px" width="292.904px"
	 height="292.904px" viewBox="0 0 292.904 292.904" enable-background="new 0 0 292.904 292.904" xml:space="preserve">
<defs>
	
	
		<inkscape:perspective  sodipodi:type="inkscape:persp3d" inkscape:vp_x="0 : 526.18109 : 1" inkscape:vp_y="0 : 1000 : 0" inkscape:vp_z="744.09448 : 526.18109 : 1" id="perspective10" inkscape:persp3d-origin="372.04724 : 350.78739 : 1">
		</inkscape:perspective>
	
		<inkscape:perspective  sodipodi:type="inkscape:persp3d" inkscape:vp_x="0 : 0.5 : 1" inkscape:vp_y="0 : 1000 : 0" inkscape:vp_z="1 : 0.5 : 1" id="perspective2824" inkscape:persp3d-origin="0.5 : 0.33333333 : 1">
		</inkscape:perspective>
	
		<inkscape:perspective  sodipodi:type="inkscape:persp3d" inkscape:vp_x="0 : 0.5 : 1" inkscape:vp_y="0 : 1000 : 0" inkscape:vp_z="1 : 0.5 : 1" id="perspective3616" inkscape:persp3d-origin="0.5 : 0.33333333 : 1">
		</inkscape:perspective>
</defs>
<sodipodi:namedview  pagecolor="#ffffff" bordercolor="#666666" borderopacity="1.0" inkscape:zoom="1.979899" inkscape:cx="134.54425" inkscape:cy="126.78539" showgrid="false" id="base" inkscape:pageopacity="0.0" inkscape:pageshadow="2" inkscape:document-units="px" inkscape:current-layer="layer1" inkscape:window-width="1280" inkscape:window-height="1002" inkscape:window-x="1912" inkscape:window-y="-8" inkscape:window-maximized="1">
	</sodipodi:namedview>
<g id="layer1" transform="translate(-162.7589,-181.52698)" inkscape:label="Ebene 1" inkscape:groupmode="layer">
	<g id="g3589">
		
			<path id="rect3646" inkscape:export-ydpi="600" inkscape:export-xdpi="600" inkscape:export-filename="D:\Users\jonas\Pictures\departure.png" fill="none" stroke="#535353" stroke-width="15" d="
			M190.228,189.027h237.965c11.028,0,19.97,8.94,19.97,19.971v237.965c0,11.028-8.94,19.97-19.97,19.97H190.228
			c-11.029,0-19.971-8.94-19.971-19.97V208.996C170.259,197.967,179.199,189.027,190.228,189.027z"/>
	</g>
</g>
<path fill="#535353" d="M96.761,41.315h98.43c25.239,0,45.699,15.229,45.699,34.015v104.661c0,18.785-20.46,34.015-45.699,34.015
	h-98.43c-25.239,0-45.7-15.229-45.7-34.015V75.33C51.061,56.544,71.522,41.315,96.761,41.315z"/>
<path fill="#FFFFFF" d="M96.761,72.714h98.43c11.648,0,21.092,7.029,21.092,15.699v20.932c0,8.67-9.443,15.7-21.092,15.7h-98.43
	c-11.649,0-21.092-7.029-21.092-15.7V88.413C75.669,79.742,85.112,72.714,96.761,72.714z"/>
<path fill="#FFFFFF" d="M124.884,46.549h42.183c3.884,0,7.032,2.343,7.032,5.233v10.466c0,2.89-3.148,5.233-7.032,5.233h-42.183
	c-3.883,0-7.031-2.343-7.031-5.233V51.781C117.853,48.891,121.001,46.549,124.884,46.549z"/>
<ellipse fill="#535353" cx="131.915" cy="30.849" rx="10.546" ry="7.849"/>
<ellipse fill="#535353" cx="160.037" cy="30.849" rx="10.546" ry="7.849"/>
<ellipse fill="#FFFFFF" cx="96.761" cy="185.223" rx="17.576" ry="13.083"/>
<ellipse fill="#FFFFFF" cx="195.191" cy="185.223" rx="17.576" ry="13.083"/>
<polygon fill="#535353" points="37,268.952 86.215,208.772 205.736,208.772 254.952,268.952 223.313,268.952 191.675,229.704 
	100.276,229.704 68.638,268.952 "/>
</svg>
